<svg xmlns="http://www.w3.org/2000/svg" xmlns:xlink="http://www.w3.org/1999/xlink" width="94" height="20" viewBox="0 0 94 20" version="1.1">
    <!-- Generator: Sketch 47 (45396) - http://www.bohemiancoding.com/sketch -->
    <title>Imported Layers</title>
    <desc>Created with Sketch.</desc>
    <defs/>
    <g id="Page-1" stroke="none" stroke-width="1" fill="none" fill-rule="evenodd" fill-opacity="0.5">
        <g id="Group" transform="translate(0.000000, -15.000000)" fill="#000000">
            <path d="M12.6347755,19.4634354 C14.9510204,19.4634354 16.4321633,21.7045238 16.4321633,21.7045238 C16.4321633,21.7045238 14.1727347,22.9306122 14.1727347,25.5933844 C14.1727347,28.7537925 17.011102,29.6731122 17.011102,29.6731122 C17.011102,29.6731122 14.7707755,34.9887925 12.2551837,34.9887925 C10.8406531,34.9887925 10.7461224,34.175017 8.86628571,34.175017 C7.23379592,34.175017 6.68326531,34.9887925 5.43967347,34.9887925 C3.06612245,34.9887925 0,29.8072619 0,25.5933844 C0,21.2162585 3.10432653,19.4634354 5.05028571,19.4634354 C6.75918367,19.4634354 7.47085714,20.4690646 8.84718367,20.4690646 C10.005551,20.4690646 10.9170612,19.4634354 12.6347755,19.4634354 L12.6347755,19.4634354 Z M12.2365714,15 C12.5779592,17.1454082 10.632,19.7988095 8.30644898,19.7125 C7.96457143,16.9826531 10.4708571,15.1440136 12.2365714,15 Z M29.795083,20.5815493 L31.3752403,20.5815493 L35.5739439,31.3266186 L33.9937866,31.3266186 L32.8199555,28.0910585 L28.2751222,28.0910585 L27.0711929,31.3266186 L25.6114286,31.3266186 L29.795083,20.5815493 Z M28.7265957,26.8871292 L32.368482,26.8871292 L30.5776371,21.8757733 L30.5475389,21.8757733 L28.7265957,26.8871292 Z M36.4618418,23.5462253 L37.7410167,23.5462253 L37.7410167,24.5996634 L37.7711149,24.5996634 C37.9818036,24.1682533 38.3128809,23.8547331 38.7643566,23.6590936 C39.2158324,23.4634542 39.7124483,23.3656359 40.2542192,23.3656359 C40.8561869,23.3656359 41.3803925,23.475995 41.8268519,23.6967164 C42.2733112,23.9174379 42.6445191,24.2159091 42.9404865,24.5921389 C43.236454,24.9683687 43.4596803,25.4022805 43.6101722,25.8938875 C43.7606641,26.3854944 43.835909,26.9071919 43.835909,27.4589956 C43.835909,28.0107993 43.7631723,28.5324968 43.6176968,29.0241038 C43.4722213,29.5157107 43.2515031,29.9446063 42.9555356,30.3108033 C42.6595682,30.6770003 42.2883604,30.9654388 41.841901,31.1761275 C41.3954416,31.3868162 40.8762523,31.4921589 40.2843174,31.4921589 C40.0936943,31.4921589 39.8805006,31.4720936 39.64473,31.4319625 C39.4089593,31.3918313 39.1757003,31.3266191 38.944946,31.2363239 C38.7141917,31.1460288 38.4959817,31.0231289 38.2903094,30.8676206 C38.0846372,30.7121123 37.911574,30.5189839 37.7711149,30.2882296 L37.7410167,30.2882296 L37.7410167,34.2912946 L36.4618418,34.2912946 L36.4618418,23.5462253 Z M42.4814885,27.3687009 C42.4814885,27.0075203 42.4338334,26.6538696 42.3385219,26.3077382 C42.2432103,25.9616068 42.097737,25.653103 41.9020975,25.3822175 C41.706458,25.1113321 41.4556419,24.8956302 41.1496416,24.7351055 C40.8436414,24.5745808 40.4849744,24.4943196 40.0736298,24.4943196 C39.6422196,24.4943196 39.2760281,24.5795971 38.9750443,24.7501546 C38.6740604,24.9207121 38.4282606,25.1439385 38.2376375,25.4198403 C38.0470144,25.6957422 37.9090656,26.0092623 37.8237868,26.3604101 C37.7385081,26.7115579 37.6958693,27.0677168 37.6958693,27.4288974 C37.6958693,27.8101436 37.7410162,28.1788433 37.8313114,28.5350075 C37.9216065,28.8911717 38.0645717,29.2046918 38.2602112,29.4755773 C38.4558507,29.7464627 38.709175,29.9646727 39.0201916,30.1302139 C39.3312082,30.295755 39.7074324,30.3785243 40.1488754,30.3785243 C40.5903183,30.3785243 40.959018,30.2932468 41.2549854,30.1226893 C41.5509529,29.9521318 41.7892282,29.7263973 41.9698185,29.445479 C42.1504088,29.1645608 42.2808332,28.8435162 42.3610955,28.4823356 C42.4413579,28.121155 42.4814885,27.7499471 42.4814885,27.3687009 Z M45.385968,23.5462253 L46.6651429,23.5462253 L46.6651429,24.5996634 L46.6952412,24.5996634 C46.9059298,24.1682533 47.2370071,23.8547331 47.6884829,23.6590936 C48.1399586,23.4634542 48.6365745,23.3656359 49.1783454,23.3656359 C49.7803131,23.3656359 50.3045188,23.475995 50.7509781,23.6967164 C51.1974375,23.9174379 51.5686453,24.2159091 51.8646128,24.5921389 C52.1605802,24.9683687 52.3838065,25.4022805 52.5342985,25.8938875 C52.6847904,26.3854944 52.7600352,26.9071919 52.7600352,27.4589956 C52.7600352,28.0107993 52.6872985,28.5324968 52.541823,29.0241038 C52.3963475,29.5157107 52.1756293,29.9446063 51.8796619,30.3108033 C51.5836944,30.6770003 51.2124866,30.9654388 50.7660272,31.1761275 C50.3195679,31.3868162 49.8003785,31.4921589 49.2084437,31.4921589 C49.0178206,31.4921589 48.8046269,31.4720936 48.5688562,31.4319625 C48.3330855,31.3918313 48.0998265,31.3266191 47.8690723,31.2363239 C47.638318,31.1460288 47.420108,31.0231289 47.2144357,30.8676206 C47.0087634,30.7121123 46.8357003,30.5189839 46.6952412,30.2882296 L46.6651429,30.2882296 L46.6651429,34.2912946 L45.385968,34.2912946 L45.385968,23.5462253 Z M51.4056147,27.3687009 C51.4056147,27.0075203 51.3579596,26.6538696 51.2626481,26.3077382 C51.1673365,25.9616068 51.0218632,25.653103 50.8262237,25.3822175 C50.6305842,25.1113321 50.3797681,24.8956302 50.0737679,24.7351055 C49.7677676,24.5745808 49.4091006,24.4943196 48.997756,24.4943196 C48.5663459,24.4943196 48.2001543,24.5795971 47.8991705,24.7501546 C47.5981867,24.9207121 47.3523869,25.1439385 47.1617638,25.4198403 C46.9711407,25.6957422 46.8331918,26.0092623 46.7479131,26.3604101 C46.6626343,26.7115579 46.6199956,27.0677168 46.6199956,27.4288974 C46.6199956,27.8101436 46.6651425,28.1788433 46.7554376,28.5350075 C46.8457328,28.8911717 46.988698,29.2046918 47.1843375,29.4755773 C47.3799769,29.7464627 47.6333012,29.9646727 47.9443178,30.1302139 C48.2553345,30.295755 48.6315586,30.3785243 49.0730016,30.3785243 C49.5144446,30.3785243 49.8831442,30.2932468 50.1791117,30.1226893 C50.4750791,29.9521318 50.7133544,29.7263973 50.8939447,29.445479 C51.074535,29.1645608 51.2049594,28.8435162 51.2852218,28.4823356 C51.3654841,28.121155 51.4056147,27.7499471 51.4056147,27.3687009 Z M64.8745742,23.7268147 C64.7943119,22.9542895 64.515906,22.3949696 64.0393482,22.0488382 C63.5627905,21.7027067 62.9533073,21.5296436 62.2108805,21.5296436 C61.9098967,21.5296436 61.6139337,21.5597416 61.3229827,21.6199383 C61.0320316,21.6801351 60.773691,21.7804615 60.5479531,21.9209207 C60.3222153,22.0613798 60.1416277,22.2494919 60.0061849,22.4852625 C59.8707422,22.7210332 59.8030219,23.0144881 59.8030219,23.3656359 C59.8030219,23.6967181 59.9008401,23.9650913 60.0964796,24.1707636 C60.2921191,24.3764359 60.5529679,24.5444827 60.8790337,24.674909 C61.2050995,24.8053354 61.5737992,24.9131863 61.9851438,24.998465 C62.3964884,25.0837438 62.8153513,25.1765458 63.241745,25.2768737 C63.6681388,25.3772016 64.0870017,25.4950852 64.4983463,25.6305279 C64.9096909,25.7659707 65.2783905,25.9490664 65.6044564,26.1798207 C65.9305222,26.410575 66.1913709,26.7015217 66.3870104,27.0526695 C66.5826499,27.4038173 66.6804682,27.8452536 66.6804682,28.3769918 C66.6804682,28.9488611 66.552552,29.4379525 66.2967157,29.8442806 C66.0408795,30.2506088 65.7123104,30.5816861 65.3109986,30.8375223 C64.9096868,31.0933586 64.460726,31.2789625 63.9641026,31.3943397 C63.4674793,31.5097168 62.9733716,31.5674045 62.4817646,31.5674045 C61.879797,31.5674045 61.3104444,31.4921597 60.7736899,31.3416678 C60.2369354,31.1911758 59.7654011,30.9629332 59.3590729,30.6569329 C58.9527447,30.3509327 58.6317001,29.9596596 58.3959294,29.4831018 C58.1601588,29.0065441 58.0422752,28.4422079 58.0422752,27.7900762 L59.3966957,27.7900762 C59.3966957,28.241552 59.4844813,28.6303169 59.6600553,28.9563827 C59.8356292,29.2824486 60.06638,29.5508218 60.3523146,29.7615105 C60.6382493,29.9721992 60.9718347,30.1277052 61.3530809,30.2280331 C61.7343271,30.3283611 62.1256002,30.3785243 62.526912,30.3785243 C62.8479614,30.3785243 63.1715142,30.3484264 63.49758,30.2882296 C63.8236459,30.2280328 64.1171007,30.1251982 64.3779534,29.9797227 C64.638806,29.8342472 64.8494915,29.6361024 65.0100163,29.3852826 C65.170541,29.1344627 65.2508021,28.8134181 65.2508021,28.4221391 C65.2508021,28.0509257 65.1529838,27.7499464 64.9573444,27.5191921 C64.7617049,27.2884378 64.5008561,27.1003257 64.1747903,26.9548502 C63.8487245,26.8093747 63.4800248,26.6914911 63.0686802,26.601196 C62.6573356,26.5109008 62.2384727,26.4180989 61.8120789,26.3227873 C61.3856852,26.2274758 60.9668223,26.1171167 60.5554777,25.9917067 C60.1441331,25.8662968 59.7754334,25.7007582 59.4493676,25.4950859 C59.1233018,25.2894136 58.862453,25.0235485 58.6668135,24.6974827 C58.471174,24.3714169 58.3733558,23.9625866 58.3733558,23.4709797 C58.3733558,22.9292088 58.4837149,22.4601827 58.7044363,22.0638873 C58.9251578,21.6675919 59.2186127,21.3415309 59.5848097,21.0856947 C59.9510067,20.8298584 60.3673614,20.6392382 60.8338864,20.5138282 C61.3004113,20.3884183 61.7794701,20.3257143 62.271077,20.3257143 C62.8228807,20.3257143 63.3345456,20.3909265 63.8060869,20.5213528 C64.2776283,20.6517791 64.6914748,20.8574483 65.0476391,21.1383666 C65.4038033,21.4192848 65.6847173,21.7729355 65.8903896,22.1993293 C66.0960619,22.6257231 66.2089291,23.1348798 66.2289947,23.7268147 L64.8745742,23.7268147 Z M69.9762248,23.5462253 L71.5262838,23.5462253 L71.5262838,24.674909 L69.9762248,24.674909 L69.9762248,29.5056755 C69.9762248,29.6561674 69.9887656,29.7765592 70.0138476,29.8668543 C70.0389296,29.9571495 70.0865846,30.027378 70.1568142,30.0775419 C70.2270438,30.1277059 70.324862,30.160312 70.450272,30.1753612 C70.5756819,30.1904104 70.7387124,30.1979349 70.9393683,30.1979349 L71.5262838,30.1979349 L71.5262838,31.3266186 L70.5480912,31.3266186 C70.217009,31.3266186 69.9335868,31.3040452 69.6978161,31.2588976 C69.4620455,31.21375 69.2714252,31.1309807 69.1259497,31.0105872 C68.9804742,30.8901937 68.8726232,30.7196387 68.8023937,30.4989172 C68.7321641,30.2781957 68.6970499,29.9872491 68.6970499,29.6260684 L68.6970499,24.674909 L67.3727276,24.674909 L67.3727276,23.5462253 L68.6970499,23.5462253 L68.6970499,21.2136122 L69.9762248,21.2136122 L69.9762248,23.5462253 Z M72.5195255,27.4439465 C72.5195255,26.8720772 72.5997867,26.3378389 72.7603114,25.8412156 C72.9208361,25.3445922 73.1616196,24.9131885 73.482669,24.5469915 C73.8037184,24.1807945 74.2000079,23.892356 74.6715492,23.6816673 C75.1430906,23.4709786 75.6848534,23.3656359 76.2968538,23.3656359 C76.9188871,23.3656359 77.463158,23.4709786 77.929683,23.6816673 C78.396208,23.892356 78.7899892,24.1807945 79.1110387,24.5469915 C79.4320881,24.9131885 79.6728716,25.3445922 79.8333963,25.8412156 C79.993921,26.3378389 80.0741821,26.8720772 80.0741821,27.4439465 C80.0741821,28.0158158 79.993921,28.547546 79.8333963,29.0391529 C79.6728716,29.5307598 79.4320881,29.9596554 79.1110387,30.3258524 C78.7899892,30.6920494 78.396208,30.9779797 77.929683,31.183652 C77.463158,31.3893243 76.9188871,31.4921589 76.2968538,31.4921589 C75.6848534,31.4921589 75.1430906,31.3893243 74.6715492,31.183652 C74.2000079,30.9779797 73.8037184,30.6920494 73.482669,30.3258524 C73.1616196,29.9596554 72.9208361,29.5307598 72.7603114,29.0391529 C72.5997867,28.547546 72.5195255,28.0158158 72.5195255,27.4439465 Z M73.873946,27.4439465 C73.873946,27.9154879 73.9366501,28.3343508 74.06206,28.7005478 C74.1874699,29.0667448 74.360533,29.3727404 74.5812545,29.6185439 C74.801976,29.8643474 75.0603166,30.0524594 75.356284,30.1828858 C75.6522515,30.3133121 75.9657716,30.3785243 76.2968538,30.3785243 C76.6279361,30.3785243 76.9414562,30.3133121 77.2374236,30.1828858 C77.5333911,30.0524594 77.7917317,29.8643474 78.0124531,29.6185439 C78.2331746,29.3727404 78.4062377,29.0667448 78.5316477,28.7005478 C78.6570576,28.3343508 78.7197616,27.9154879 78.7197616,27.4439465 C78.7197616,26.9724052 78.6570576,26.5535423 78.5316477,26.1873453 C78.4062377,25.8211483 78.2331746,25.5126445 78.0124531,25.2618246 C77.7917317,25.0110047 77.5333911,24.8203845 77.2374236,24.6899581 C76.9414562,24.5595318 76.6279361,24.4943196 76.2968538,24.4943196 C75.9657716,24.4943196 75.6522515,24.5595318 75.356284,24.6899581 C75.0603166,24.8203845 74.801976,25.0110047 74.5812545,25.2618246 C74.360533,25.5126445 74.1874699,25.8211483 74.06206,26.1873453 C73.9366501,26.5535423 73.873946,26.9724052 73.873946,27.4439465 Z M81.5339465,23.5462253 L82.7378758,23.5462253 L82.7378758,25.186579 L82.767974,25.186579 C83.0789907,24.5545129 83.4602312,24.087995 83.9117069,23.7870111 C84.3631827,23.4860273 84.9350434,23.3455703 85.6273062,23.3656359 L85.6273062,24.7200564 C85.1156337,24.7200564 84.6792137,24.7902849 84.3180331,24.930744 C83.9568525,25.0712031 83.6659058,25.2768723 83.4451843,25.5477578 C83.2244628,25.8186433 83.0639405,26.1472124 82.9636126,26.533475 C82.8632846,26.9197375 82.8131214,27.3636821 82.8131214,27.8653218 L82.8131214,31.3266186 L81.5339465,31.3266186 L81.5339465,23.5462253 Z M92.9562261,28.8585635 C92.7856686,29.7314166 92.4094444,30.3885548 91.8275423,30.8299978 C91.2456402,31.2714408 90.5132572,31.4921589 89.6303713,31.4921589 C89.008338,31.4921589 88.4690834,31.3918325 88.0125912,31.1911766 C87.5560991,30.9905207 87.1723504,30.7096067 86.8613338,30.3484261 C86.5503172,29.9872454 86.3170582,29.5558417 86.1615499,29.054202 C86.0060416,28.5525623 85.9182559,28.0057832 85.8981903,27.4138483 C85.8981903,26.8219134 85.9884841,26.2801506 86.1690744,25.7885437 C86.3496647,25.2969367 86.602989,24.8705494 86.9290548,24.5093687 C87.2551207,24.1481881 87.6413775,23.8672741 88.0878368,23.6666182 C88.5342962,23.4659623 89.0233876,23.3656359 89.5551257,23.3656359 C90.2473885,23.3656359 90.8217574,23.5086011 91.2782496,23.7945357 C91.7347417,24.0804703 92.1009332,24.4441537 92.3768351,24.8855967 C92.6527369,25.3270396 92.8433572,25.8086066 92.9487015,26.3303119 C93.0540459,26.8520172 93.0966846,27.3486331 93.076619,27.8201744 L87.2526108,27.8201744 C87.242578,28.1612895 87.2827086,28.4848422 87.3730038,28.7908425 C87.4632989,29.0968427 87.6087723,29.3677241 87.8094282,29.6034948 C88.0100841,29.8392654 88.2659165,30.0273775 88.5769331,30.1678366 C88.8879497,30.3082958 89.2541413,30.3785243 89.6755186,30.3785243 C90.2172895,30.3785243 90.6612341,30.2531162 91.0073655,30.0022964 C91.3534969,29.7514765 91.5817395,29.370236 91.6921003,28.8585635 L92.9562261,28.8585635 Z M91.7221985,26.6914907 C91.7021329,26.3905068 91.6344126,26.1045765 91.5190354,25.833691 C91.4036583,25.5628056 91.2481523,25.3295466 91.0525128,25.1339071 C90.8568733,24.9382676 90.6261225,24.7827616 90.3602534,24.6673845 C90.0943844,24.5520073 89.8009295,24.4943196 89.4798801,24.4943196 C89.1487979,24.4943196 88.8503267,24.5520073 88.5844577,24.6673845 C88.3185886,24.7827616 88.090346,24.9407758 87.8997229,25.1414317 C87.7090998,25.3420875 87.5586101,25.5753465 87.4482494,25.8412156 C87.3378886,26.1070846 87.2726764,26.3905068 87.2526108,26.6914907 L91.7221985,26.6914907 Z" id="Imported-Layers"/>
        </g>
    </g>
</svg>