<svg xmlns="http://www.w3.org/2000/svg" xmlns:xlink="http://www.w3.org/1999/xlink" width="114" height="20" viewBox="0 0 114 20" version="1.1">
    <!-- Generator: Sketch 47 (45396) - http://www.bohemiancoding.com/sketch -->
    <title>Combined Shape</title>
    <desc>Created with Sketch.</desc>
    <defs/>
    <g id="Page-1" stroke="none" stroke-width="1" fill="none" fill-rule="evenodd" fill-opacity="0.5">
        <g id="Group" transform="translate(-152.000000, -15.000000)" fill="#000000">
            <path d="M231.581145,27.654851 L230.658032,28.5361763 C230.444698,28.6548051 230.232508,28.7925303 230.02089,28.8903267 C229.379744,29.1848734 228.727732,29.2589441 228.148355,29.2589441 C227.531803,29.2589441 226.565223,29.2184367 225.579197,28.4968263 C224.209398,27.5205979 223.610576,25.8424342 223.610576,24.3801171 C223.610576,21.3524782 226.046472,19.8675927 228.033395,19.8675927 C228.727732,19.8675927 229.440942,20.0435105 230.02089,20.4144426 C230.985183,21.0596676 231.234549,21.8981708 231.372959,22.3472242 L226.835751,24.2018845 L225.349848,24.3187773 C225.830851,26.8013022 227.490623,28.2451017 229.324838,28.2451017 C230.241087,28.2451017 230.921125,27.9424536 231.545113,27.6305466 C231.545113,27.6305466 231.670368,27.5645774 231.581145,27.654851 L231.581145,27.654851 Z M228.843836,22.7169989 L225.330402,24.2597522 C225.310956,23.9090739 225.272064,23.5583955 225.272064,23.2291282 C225.272064,21.1192713 226.719647,20.5116603 227.490623,20.5116603 C228.531556,20.5116603 229.403766,21.4126607 229.403766,22.1927174 C229.403766,22.4646957 229.212166,22.5815885 228.843836,22.7169989 Z M222.09436,27.5038163 C222.09436,28.262462 222.228195,28.3805121 222.862477,28.4401159 C223.193059,28.4794659 223.522497,28.4968263 223.848503,28.5361763 L223.134721,28.9661334 L219.733388,28.9661334 C220.179502,28.3805121 220.256142,28.3220658 220.256142,27.9320374 L220.256142,27.4962935 L220.248707,15.8857153 L218.74679,15.8857153 L220.192657,15.1808865 L222.952844,15.1808865 C222.354594,15.5315648 222.175576,15.7450967 222.098936,16.4285144 L222.09436,27.5038163 Z M216.819349,20.825882 C217.262603,21.1944994 218.187432,21.9768709 218.187432,23.4605991 C218.187432,24.9067133 217.381567,25.5883949 216.568839,26.2336199 C216.319473,26.4876592 216.027783,26.7631095 216.027783,27.1890159 C216.027783,27.6212877 216.319473,27.855652 216.529375,28.0304125 L217.226571,28.5749477 C218.074188,29.2988728 218.84688,29.9626155 218.84688,31.3109332 C218.84688,33.1476545 217.089877,35 213.76976,35 C210.972969,35 209.6209,33.6522609 209.6209,32.2073041 C209.6209,31.5042114 209.966925,30.508308 211.108519,29.8260477 C212.305019,29.0859196 213.9259,28.9869658 214.794106,28.9290981 C214.523006,28.5749477 214.213586,28.2040156 214.213586,27.5987193 C214.213586,27.267716 214.31196,27.0703871 214.406902,26.8377589 C214.195856,26.8580126 213.983094,26.878845 213.789778,26.878845 C211.742801,26.878845 210.585765,25.333777 210.585765,23.8112774 C210.585765,22.9131705 210.990699,21.9166885 211.822301,21.1944994 C212.922715,20.2778748 214.234748,20.1198959 215.277396,20.1198959 L219.254674,20.1198959 L218.018137,20.825882 L216.819349,20.825882 Z M215.451838,29.4950443 C215.293411,29.474212 215.198468,29.474212 215.00744,29.474212 C214.832426,29.474212 213.789778,29.5124046 212.982197,29.7866976 C212.554957,29.9446765 211.320137,30.4116689 211.320137,31.798758 C211.320137,33.1829538 212.653331,34.1811718 214.71575,34.1811718 C216.568839,34.1811718 217.552577,33.2824862 217.552577,32.0724723 C217.552577,31.076569 216.916007,30.5511301 215.451838,29.4950443 L215.451838,29.4950443 Z M216.006621,25.7845665 C215.701205,26.0935801 215.180738,26.3314164 214.696876,26.3314164 C213.038819,26.3314164 212.285001,24.1625344 212.285001,22.8547241 C212.285001,22.3472242 212.382803,21.8194707 212.709381,21.4126607 C213.017086,21.0197389 213.559286,20.7656996 214.059734,20.7656996 C215.664028,20.7656996 216.491627,22.9530992 216.491627,24.3575486 C216.491627,24.7111204 216.452735,25.333777 216.006621,25.7845665 Z M204.853201,29.2184367 C201.785309,29.2184367 200.143839,26.8013022 200.143839,24.6127453 C200.143839,22.055571 202.207402,19.8675927 205.142603,19.8675927 C207.980002,19.8675927 209.757022,22.1151747 209.757022,24.4750201 C209.757022,26.7798912 208.000592,29.2184367 204.853201,29.2184367 Z M207.266791,27.6386481 C206.822393,28.262462 206.051989,28.6322367 205.297027,28.6322367 C202.957788,28.6322367 202.01523,25.4500911 202.01523,23.5207815 C202.01523,22.6782276 202.149636,21.8194707 202.903454,21.136053 C203.365582,20.7251922 204.006728,20.4734677 204.643298,20.4734677 C207.036871,20.4734677 207.846739,23.7534097 207.846739,25.4732382 C207.846739,26.2336199 207.733495,27.0136767 207.266791,27.6386481 Z M194.581713,29.2184367 C191.51325,29.2184367 189.874639,26.8013022 189.874639,24.6127453 C189.874639,22.055571 191.938774,19.8675927 194.872831,19.8675927 C197.708514,19.8675927 199.483819,22.1151747 199.483819,24.4750201 C199.483819,26.7798912 197.729676,29.2184367 194.581713,29.2184367 Z M196.995876,27.6386481 C196.550334,28.262462 195.781073,28.6322367 195.027827,28.6322367 C192.692592,28.6322367 191.74603,25.4500911 191.74603,23.5207815 C191.74603,22.6782276 191.879864,21.8194707 192.634826,21.136053 C193.098098,20.7251922 193.732381,20.4734677 194.371239,20.4734677 C196.762524,20.4734677 197.57468,23.7534097 197.57468,25.4732382 C197.57468,26.2336199 197.459148,27.0136767 196.995876,27.6386481 Z M188.647826,28.5408057 L186.060365,29.1403152 C185.011997,29.3075529 184.070582,29.4545369 183.073689,29.4545369 C178.082932,29.4545369 176.181229,25.7376936 176.181229,22.8286836 C176.181229,19.2761846 178.875643,15.9823543 183.490062,15.9823543 C184.466365,15.9823543 185.405492,16.1276023 186.261116,16.3637026 C187.617188,16.7491016 188.251471,17.2241955 188.647826,17.5025392 L187.144765,18.9469173 L186.511054,19.0904293 L186.962888,18.3618748 C186.350911,17.7571571 185.225903,16.6408889 183.090847,16.6408889 C180.23629,16.6408889 178.082932,18.83639 178.082932,22.0416827 C178.082932,25.484233 180.541707,28.7225103 184.485239,28.7225103 C185.643992,28.7225103 186.240526,28.4869887 186.782154,28.2670914 L186.782154,25.315838 L184.049992,25.464558 L185.498147,24.6775571 L189.332439,24.6775571 L188.863447,25.1341334 C188.737048,25.2429247 188.71989,25.27996 188.68443,25.4257867 C188.665556,25.5924457 188.647826,26.1225139 188.647826,26.308848 L188.647826,28.5408057 Z M237.144415,27.7381805 L237.144415,32.7119106 L236.168111,32.7119106 L236.168111,20.0556628 L237.144415,20.0556628 L237.144415,21.4971475 C237.780413,20.5654773 238.942597,19.8270853 240.292378,19.8270853 C242.713404,19.8270853 244.344007,21.6852176 244.344007,24.6266335 C244.344007,27.5483744 242.713404,29.4452781 240.292378,29.4452781 C239.018093,29.4452781 237.876499,28.7803781 237.144415,27.7381805 Z M243.295068,24.6266335 C243.295068,26.8470177 242.152902,28.5523793 240.127659,28.5523793 C238.86996,28.5523793 237.667169,27.5159685 237.144415,26.642166 L237.144415,22.5908473 C237.667169,21.7187809 238.86996,20.7188268 240.127659,20.7188268 C242.152902,20.7188268 243.295068,22.4097214 243.295068,24.6266335 Z M245.677202,16.5610315 L246.652933,16.5610315 L246.652933,29.2172793 L245.677202,29.2172793 L245.677202,16.5610315 Z M257.60789,31.8936611 C257.816648,31.9879855 258.172968,32.0458532 258.398884,32.0458532 C258.995991,32.0458532 259.411792,31.798758 259.785269,30.9261129 L260.497336,29.2936647 L256.651605,20.0556628 L257.74058,20.0556628 L261.039536,28.0610824 L264.306462,20.0556628 L265.41088,20.0556628 L260.720393,31.2322331 C260.233671,32.3838006 259.467842,32.9375947 258.416042,32.9375947 C258.100331,32.9375947 257.683958,32.8808843 257.440311,32.8050776 L257.60789,31.8936611 Z M254.756192,29.1900815 C254.690991,28.8723877 254.641804,28.592308 254.605772,28.3585224 C254.576031,28.1253155 254.558873,27.8869005 254.558873,27.6444348 C254.224287,28.1415185 253.750148,28.5552726 253.144463,28.8810679 C252.538205,29.2091778 251.962261,29.3700501 251.17241,29.3700501 C250.221273,29.3700501 249.482897,29.1333711 248.956139,28.6530691 C248.431097,28.1733457 248.166861,27.5234913 248.166861,26.7011911 C248.166861,25.8800482 248.549489,25.2134121 249.312458,24.7035976 C250.075428,24.1914683 251.061454,23.9368504 252.281976,23.9368504 L254.558873,23.9368504 L254.558873,22.7985924 C254.558873,22.1429512 254.338104,21.6273499 253.897137,21.2535244 C253.454455,20.8791203 252.833327,20.6898929 252.028034,20.6898929 C251.291946,20.6898929 250.69484,20.8629174 250.240147,21.1997075 C249.789457,21.5434417 249.562397,21.9693481 249.562397,22.4826347 L248.563216,22.4826347 L248.542626,22.4334471 C248.506594,21.7413493 248.819445,21.134317 249.484613,20.6100355 C250.14692,20.0863326 251.014555,19.8230345 252.082368,19.8230345 C253.146751,19.8230345 254.008094,20.0822819 254.657247,20.5996193 C255.305828,21.1117485 255.631262,21.8518766 255.631262,22.8194248 L255.631262,27.3388933 C255.631262,27.6635312 255.646704,27.9771742 255.68674,28.2827157 C255.72792,28.5888359 255.793693,28.8943775 255.8812,29.1900815 L254.756192,29.1900815 Z M251.291946,28.4702071 C250.655948,28.4702071 250.157215,28.3116496 249.792317,27.9916411 C249.428562,27.6751047 249.245541,27.2572998 249.245541,26.7347544 C249.245541,26.1809603 249.534371,25.704709 250.104597,25.3112086 C250.673678,24.9165508 251.397183,24.7209579 252.271109,24.7209579 L254.558873,24.7209579 L254.558873,26.4801364 C254.343251,27.0622856 253.931453,27.5431663 253.32634,27.9117837 C252.717223,28.2827157 252.12126,28.4702071 251.291946,28.4702071 Z M152.518737,32.6722376 C152.204522,32.5876009 152,32.2756414 152,31.7928983 L152,15.8582571 C152,15.4111634 152.173172,15.1096313 152.447682,15 L160.278292,23.8801491 L152.518737,32.6722376 L152.518737,32.6722376 Z M153.596676,32.3339962 L153.596676,32.3339962 L160.726525,24.3884588 L163.02226,26.9918916 L153.596676,32.3339962 Z M163.087166,20.6975106 L163.087166,20.6975106 L160.740116,23.3568729 L153.792937,15.4286296 L163.087166,20.6975106 Z M163.717772,21.0549998 L167.358738,23.1190573 C168.048112,23.5098618 168.054416,24.1398345 167.358738,24.5341214 L163.625659,26.6499057 L161.190741,23.8711345 L163.717772,21.0549998 Z" id="Combined-Shape"/>
        </g>
    </g>
</svg>